<svg xmlns="http://www.w3.org/2000/svg" viewBox="0 0 40 40">
  <defs>
    <linearGradient id="bg" x1="0" y1="0" x2="0" y2="1">
      <stop offset="0%" stop-color="#7C5CFF" />
      <stop offset="55%" stop-color="#6447F0" />
      <stop offset="100%" stop-color="#4F32D8" />
    </linearGradient>
    <linearGradient id="shine" x1="0" y1="0" x2="0" y2="1">
      <stop offset="0%" stop-color="white" stop-opacity="0.32" />
      <stop offset="100%" stop-color="white" stop-opacity="0" />
    </linearGradient>
    <linearGradient id="glyph" x1="0" y1="0" x2="0" y2="1">
      <stop offset="0%" stop-color="white" />
      <stop offset="100%" stop-color="white" stop-opacity="0.92" />
    </linearGradient>
    <radialGradient id="inner" cx="50%" cy="0%" r="80%">
      <stop offset="0%" stop-color="white" stop-opacity="0.25" />
      <stop offset="100%" stop-color="white" stop-opacity="0" />
    </radialGradient>
  </defs>
  <rect width="40" height="40" rx="11" fill="url(#bg)" />
  <rect width="40" height="40" rx="11" fill="url(#inner)" />
  <rect width="40" height="20" rx="11" fill="url(#shine)" />
  <rect x="0.6" y="0.6" width="38.8" height="38.8" rx="10.4" fill="none" stroke="white" stroke-opacity="0.18" stroke-width="1" />
  <path fill-rule="evenodd" clip-rule="evenodd" fill="url(#glyph)" d="M12 10.5 H21.5 C25.366 10.5 28.5 13.634 28.5 17.5 C28.5 21.366 25.366 24.5 21.5 24.5 H16.5 V29.5 H12 V10.5 Z M16.5 14.5 V20.5 H21.5 C23.1569 20.5 24.5 19.1569 24.5 17.5 C24.5 15.8431 23.1569 14.5 21.5 14.5 H16.5 Z" />
</svg>
